<svg width="62" height="62" viewBox="0 0 62 62" fill="none" xmlns="http://www.w3.org/2000/svg">
<path d="M28.4192 25.8333H33.5859V38.75H28.4192V25.8333ZM28.4166 41.3333H33.5833V46.5H28.4166V41.3333Z" fill="#C44C4C"/>
<path d="M35.5673 10.85C34.6683 9.15791 32.9168 8.1065 30.9999 8.1065C29.0831 8.1065 27.3316 9.15792 26.4326 10.8526L7.47612 46.6653C7.05547 47.4518 6.8471 48.3343 6.87156 49.2258C6.89602 50.1174 7.15247 50.9871 7.61562 51.7493C8.07209 52.515 8.72035 53.1483 9.49641 53.5869C10.2725 54.0254 11.1495 54.254 12.0409 54.25H49.959C51.788 54.25 53.4439 53.3148 54.3869 51.7493C54.8493 50.9869 55.1053 50.1172 55.1297 49.2258C55.1542 48.3344 54.9463 47.452 54.5264 46.6653L35.5673 10.85ZM12.0409 49.0833L30.9999 13.2706L49.9719 49.0833H12.0409Z" fill="#C44C4C"/>
</svg>
